<svg width="120" height="120" viewBox="0 0 200 200" fill="none" xmlns="http://www.w3.org/2000/svg">
  <!-- Gradients -->
  <defs>
    <radialGradient id="petalGradientSmall" cx="50%" cy="50%" r="50%">
      <stop offset="0%" style={{ stopColor: '#FDA4BA', stopOpacity: 1 }} />
      <stop offset="50%" style={{ stopColor: '#F8C9D4', stopOpacity: 0.95 }} />
      <stop offset="100%" style={{ stopColor: '#F8C9D4', stopOpacity: 0.8 }} />
    </radialGradient>
    <radialGradient id="centerGradientSmall" cx="50%" cy="50%" r="50%">
      <stop offset="0%" style={{ stopColor: '#E890A8', stopOpacity: 1 }} />
      <stop offset="70%" style={{ stopColor: '#FDA4BA', stopOpacity: 1 }} />
      <stop offset="100%" style={{ stopColor: '#F8C9D4', stopOpacity: 1 }} />
    </radialGradient>
    <filter id="shadowSmall" x="-50%" y="-50%" width="200%" height="200%">
      <feDropShadow dx="0" dy="1" stdDeviation="1" floodOpacity="0.15"/>
    </filter>
  </defs>

  <!-- Flower petals -->
  <g transform="translate(100,100)">
    <path d="M 0,-50 Q -16,-40 -20,-20 Q -16,-10 0,0 Q 16,-10 20,-20 Q 16,-40 0,-50" fill="url(#petalGradientSmall)" opacity="0.9" transform="rotate(0)"/>
    <path d="M 0,-50 Q -16,-40 -20,-20 Q -16,-10 0,0 Q 16,-10 20,-20 Q 16,-40 0,-50" fill="url(#petalGradientSmall)" opacity="0.85" transform="rotate(45)"/>
    <path d="M 0,-50 Q -16,-40 -20,-20 Q -16,-10 0,0 Q 16,-10 20,-20 Q 16,-40 0,-50" fill="url(#petalGradientSmall)" opacity="0.85" transform="rotate(90)"/>
    <path d="M 0,-50 Q -16,-40 -20,-20 Q -16,-10 0,0 Q 16,-10 20,-20 Q 16,-40 0,-50" fill="url(#petalGradientSmall)" opacity="0.85" transform="rotate(135)"/>
    <path d="M 0,-50 Q -16,-40 -20,-20 Q -16,-10 0,0 Q 16,-10 20,-20 Q 16,-40 0,-50" fill="url(#petalGradientSmall)" opacity="0.85" transform="rotate(180)"/>
    <path d="M 0,-50 Q -16,-40 -20,-20 Q -16,-10 0,0 Q 16,-10 20,-20 Q 16,-40 0,-50" fill="url(#petalGradientSmall)" opacity="0.85" transform="rotate(225)"/>
    <path d="M 0,-50 Q -16,-40 -20,-20 Q -16,-10 0,0 Q 16,-10 20,-20 Q 16,-40 0,-50" fill="url(#petalGradientSmall)" opacity="0.85" transform="rotate(270)"/>
    <path d="M 0,-50 Q -16,-40 -20,-20 Q -16,-10 0,0 Q 16,-10 20,-20 Q 16,-40 0,-50" fill="url(#petalGradientSmall)" opacity="0.85" transform="rotate(315)"/>

    <circle r="16" fill="url(#centerGradientSmall)" filter="url(#shadowSmall)"/>
    <circle r="6" fill="#E890A8" opacity="0.7"/>
  </g>
</svg>